<?xml version="1.0" encoding="UTF-8"?>
<svg id="Layer_1" xmlns="http://www.w3.org/2000/svg" viewBox="0 0 750.5 312.07">
  <defs>
    <style>
      .cls-1 {
        fill: #fcc996;
      }

      .cls-2 {
        fill: #fff;
        font-family: Inter-Bold, Inter;
        font-size: 133.25px;
        font-variation-settings: 'opsz' 14, 'wght' 700;
        font-weight: 700;
      }

      .cls-3 {
        fill: #755a4e;
      }
    </style>
  </defs>
  <g>
    <path class="cls-1" d="M39.63,172.34c-5.76,7.2-23.2,25.99-28.01,47.46s-7.72,60.41,64.4,67.63c36.36,3.64,60.43,1.91,73.48-26.68,10.95-25.57-2.94-57.86-5.92-63.79-6.01-11.97-9.41-15.24.3-43.75,6.68-19.61-1.18-22.21-6.75-21.92-2.06.11-4.06.66-5.92,1.54-2.7,1.27-9.07,3.77-15.2,2.45-8.06-1.73-8.02-13.37-7.22-22.68-22.25-3.25-52.18-10.96-60.92,7.17-.95,2.18-1.85,4.64-2.55,7.31-1.22,4.6-1.55,9.4-1.09,14.14,1.29,13.19.7,24.5-4.6,31.12Z"/>
    <circle class="cls-3" cx="92.42" cy="163.98" r="19.2"/>
    <g>
      <g>
        <rect class="cls-3" x="99.81" y="17.9" width="1.93" height="3.29" transform="translate(198.79 50.07) rotate(-173.68)"/>
        <rect class="cls-3" x="95.99" y="16.49" width="3.84" height="5.49" rx=".92" ry=".92" transform="translate(193.11 49.12) rotate(-173.68)"/>
      </g>
      <g>
        <rect class="cls-3" x="98.55" y="26.6" width="2.19" height="3.29" transform="translate(195.59 67.29) rotate(-173.68)"/>
        <rect class="cls-3" x="94.73" y="25.17" width="3.84" height="5.49" rx=".92" ry=".92" transform="translate(189.65 66.3) rotate(-173.68)"/>
      </g>
      <g>
        <rect class="cls-3" x="97.83" y="35.36" width="2.19" height="3.29" transform="translate(193.17 84.68) rotate(-173.68)"/>
        <rect class="cls-3" x="94.01" y="33.94" width="3.84" height="5.49" rx=".92" ry=".92" transform="translate(187.23 83.69) rotate(-173.68)"/>
      </g>
    </g>
    <path class="cls-3" d="M111.69,221.77l-5.64.11c-2.52.05-5.02.51-7.4,1.36l-8.51,3.05c-4.74.74-9.59.04-13.91-2.03l-7.17-5.46c-2.41-1.84-5.16-3.19-8.09-3.97l-4.08-1.09c-.31-.08-.5-.4-.43-.72l.83-3.79c.39-1.79,2.1-2.96,3.91-2.7l48.4,7.08c1.81.26,3.11,1.88,2.97,3.71l-.29,3.89c-.02.31-.28.55-.59.56Z"/>
    <rect class="cls-1" x="94.3" y="76.18" width="19.2" height="10.97" rx="1.23" ry="1.23" transform="translate(12.91 -14.17) rotate(8.32)"/>
    <rect class="cls-1" x="96.84" y="58.81" width="19.2" height="10.97" rx="1.23" ry="1.23" transform="translate(10.42 -14.72) rotate(8.32)"/>
    <rect class="cls-1" x="91.76" y="93.55" width="19.2" height="10.97" rx="1.23" ry="1.23" transform="translate(15.4 -13.62) rotate(8.32)"/>
    <g>
      <path class="cls-1" d="M108.39,52.11l-5.8-.85c-.98-.14-1.79-.83-2.1-1.77l-1.35-4.08c-.17-.52-.23-1.07-.17-1.61l3.38-30.87c.09-.84.99-1.4,1.89-1.17l5.67,1.41c1.35.33,2.71.61,4.08.81"/>
      <path class="cls-1" d="M106.24,51.88l7.85,1.06c.98.14,1.95-.28,2.52-1.09l2.46-3.52c.32-.45.53-.96.63-1.5l5.6-30.55c.15-.84-.54-1.62-1.48-1.67l-5.83-.27c-1.39-.07-4.61-.56-5.98-.75"/>
    </g>
    <g>
      <g>
        <rect class="cls-3" x="124.1" y="21.51" width="1.93" height="3.29" transform="translate(6.17 -22.03) rotate(10.32)"/>
        <rect class="cls-3" x="125.98" y="20.93" width="3.84" height="5.49" rx=".92" ry=".92" transform="translate(6.31 -22.53) rotate(10.32)"/>
      </g>
      <g>
        <rect class="cls-3" x="122.55" y="30.17" width="2.19" height="3.29" transform="translate(7.7 -21.63) rotate(10.32)"/>
        <rect class="cls-3" x="124.7" y="29.61" width="3.84" height="5.49" rx=".92" ry=".92" transform="translate(7.84 -22.16) rotate(10.32)"/>
      </g>
      <g>
        <rect class="cls-3" x="120.74" y="38.78" width="2.19" height="3.29" transform="translate(9.21 -21.17) rotate(10.32)"/>
        <rect class="cls-3" x="122.89" y="38.22" width="3.84" height="5.49" rx=".92" ry=".92" transform="translate(9.36 -21.69) rotate(10.32)"/>
      </g>
    </g>
  </g>
  <text class="cls-2" transform="translate(169.09 261.35)"><tspan x="0" y="0">StrumUp</tspan></text>
</svg>